# xmcd
#
# Track frame offsets:
#	150
#	10417
#	24416
#	34344
#	49585
#	62763
#	82524
#	96590
#	114051
#	131571
#
# Disc length: 1925 seconds
#
# Revision: 0
# Processed by: cddbd v1.5.2PL0 Copyright (c) Steve Scherf et al.
# Submitted via: audiograbber 1.83.01
#
DISCID=7307830a
DTITLE=Hank Williams Jr. - A Tribute To My Father
DYEAR=1993
DGENRE=Country
TTITLE0=Honky Tonkin'
TTITLE1=Are You Sure Hank Done It This Way
TTITLE2=Lovesick Blues
TTITLE3=Ballad Of Hank Williams
TTITLE4=A Whole Lot Of Hank
TTITLE5=Kaw-Liga
TTITLE6=Move It On Over
TTITLE7=The Conversation
TTITLE8=You're Gonna Change (Or I'm Gonna Leave)
TTITLE9=If You Don't Like Hank Williams
EXTD=
EXTT0=
EXTT1=
EXTT2=
EXTT3=
EXTT4=
EXTT5=
EXTT6=
EXTT7=
EXTT8=
EXTT9=
PLAYORDER=
